<?xml version="1.0" encoding="utf-8"?>
<!-- Generator: Adobe Illustrator 14.0.0, SVG Export Plug-In . SVG Version: 6.00 Build 43363)  -->
<!DOCTYPE svg PUBLIC "-//W3C//DTD SVG 1.1//EN" "http://www.w3.org/Graphics/SVG/1.1/DTD/svg11.dtd">
<svg version="1.1" id="Guides" xmlns="http://www.w3.org/2000/svg" xmlns:xlink="http://www.w3.org/1999/xlink" x="0px" y="0px"
	 width="194.5px" height="198.499px" viewBox="0 0 194.5 198.499" enable-background="new 0 0 194.5 198.499" xml:space="preserve">
<text transform="matrix(1 0 0 1 1014.772 -363.3857)" display="none" font-family="'MyriadPro-Regular'" font-size="16">DVD Menu</text>
<text transform="matrix(1 0 0 1 -96.1802 -363.3857)" display="none" font-family="'MyriadPro-Regular'" font-size="16">Web Site</text>
<text transform="matrix(1 0 0 1 241.3037 75.2529)" display="none"><tspan x="0" y="0" display="inline" font-family="'midaymForum'" font-size="12">1 2 3 4 5 6 7 8 9</tspan><tspan x="0" y="14.4" display="inline" font-family="'midaymForum'" font-size="12">q w e r t y u i o p [ ] \</tspan><tspan x="0" y="28.801" display="inline" font-family="'midaymForum'" font-size="12">a s d f g h j k l ; &apos;</tspan><tspan x="0" y="43.201" display="inline" font-family="'midaymForum'" font-size="12">z x c v b n m , . /</tspan></text>
<text transform="matrix(1 0 0 1 -34.7275 -299.2236)" display="none"><tspan x="0" y="0" display="inline" font-family="'Modern-Regular'" font-size="12">Search</tspan><tspan x="0" y="14.4" display="inline" font-family="'Modern-Regular'" font-size="12">Faqs</tspan><tspan x="0" y="28.8" display="inline" font-family="'Modern-Regular'" font-size="12">Roster</tspan><tspan x="0" y="43.2" display="inline" font-family="'Modern-Regular'" font-size="12">Email</tspan><tspan x="0" y="57.6" display="inline" font-family="'Modern-Regular'" font-size="12">Print</tspan><tspan x="0" y="72" display="inline" font-family="'Modern-Regular'" font-size="12">User</tspan><tspan x="0" y="86.4" display="inline" font-family="'Modern-Regular'" font-size="12">Inbox</tspan><tspan x="0" y="100.8" display="inline" font-family="'Modern-Regular'" font-size="12">Sticky</tspan><tspan x="0" y="115.2" display="inline" font-family="'Modern-Regular'" font-size="12">Announcement</tspan><tspan x="0" y="129.6" display="inline" font-family="'Modern-Regular'" font-size="12">Post</tspan><tspan x="0" y="144" display="inline" font-family="'Modern-Regular'" font-size="12">Hot</tspan><tspan x="0" y="158.4" display="inline" font-family="'Modern-Regular'" font-size="12">Lock(ed)</tspan><tspan x="0" y="172.8" display="inline" font-family="'Modern-Regular'" font-size="12">Reply</tspan><tspan x="0" y="187.2" display="inline" font-family="'Modern-Regular'" font-size="12">Forward</tspan><tspan x="0" y="201.6" display="inline" font-family="'Modern-Regular'" font-size="12">New</tspan><tspan x="0" y="216" display="inline" font-family="'Modern-Regular'" font-size="12">Register</tspan><tspan x="0" y="230.4" display="inline" font-family="'Modern-Regular'" font-size="12">Login</tspan><tspan x="0" y="244.8" display="inline" font-family="'Modern-Regular'" font-size="12">Logout</tspan><tspan x="0" y="259.2" display="inline" font-family="'Modern-Regular'" font-size="12">Subscribe</tspan><tspan x="0" y="273.6" display="inline" font-family="'Modern-Regular'" font-size="12">Bookmark</tspan></text>
<text transform="matrix(1 0 0 1 159.7578 -299.2236)" display="none"><tspan x="0" y="0" display="inline" font-family="'Modern-Regular'" font-size="12">Edit</tspan><tspan x="0" y="14.4" display="inline" font-family="'Modern-Regular'" font-size="12">Quote</tspan><tspan x="0" y="28.8" display="inline" font-family="'Modern-Regular'" font-size="12">Delete</tspan><tspan x="0" y="43.2" display="inline" font-family="'Modern-Regular'" font-size="12">Report</tspan><tspan x="0" y="57.6" display="inline" font-family="'Modern-Regular'" font-size="12">Warn</tspan><tspan x="0" y="72" display="inline" font-family="'Modern-Regular'" font-size="12">Info</tspan><tspan x="0" y="86.4" display="inline" font-family="'Modern-Regular'" font-size="12">Cp</tspan><tspan x="0" y="100.8" display="inline" font-family="'Modern-Regular'" font-size="12">Mod Cp</tspan><tspan x="0" y="115.2" display="inline" font-family="'Modern-Regular'" font-size="12">Admin Cp</tspan><tspan x="0" y="129.6" display="inline" font-family="'Modern-Regular'" font-size="12">View</tspan><tspan x="0" y="144" display="inline" font-family="'Modern-Regular'" font-size="12">Sort</tspan><tspan x="0" y="158.4" display="inline" font-family="'Modern-Regular'" font-size="12">Filter</tspan><tspan x="0" y="172.8" display="inline" font-family="'Modern-Regular'" font-size="12">Pages</tspan><tspan x="0" y="187.2" display="inline" font-family="'Modern-Regular'" font-size="12">Page</tspan><tspan x="0" y="201.6" display="inline" font-family="'Modern-Regular'" font-size="12">Paperclip</tspan><tspan x="0" y="216" display="inline" font-family="'Modern-Regular'" font-size="12">Mark</tspan><tspan x="0" y="230.4" display="inline" font-family="'Modern-Regular'" font-size="12">Link</tspan><tspan x="0" y="244.8" display="inline" font-family="'Modern-Regular'" font-size="12">Chat</tspan><tspan x="0" y="259.2" display="inline" font-family="'Modern-Regular'" font-size="12">Mine</tspan><tspan x="0" y="273.6" display="inline" font-family="'Modern-Regular'" font-size="12">Bold</tspan></text>
<text transform="matrix(1 0 0 1 339.7578 -299.2236)" display="none"><tspan x="0" y="0" display="inline" font-family="'Modern-Regular'" font-size="12">Italic</tspan><tspan x="0" y="14.4" display="inline" font-family="'Modern-Regular'" font-size="12">Underline</tspan><tspan x="0" y="28.8" display="inline" font-family="'Modern-Regular'" font-size="12">List</tspan><tspan x="0" y="43.2" display="inline" font-family="'Modern-Regular'" font-size="12">List Type</tspan><tspan x="0" y="57.6" display="inline" font-family="'Modern-Regular'" font-size="12">List Item</tspan><tspan x="0" y="72" display="inline" font-family="'Modern-Regular'" font-size="12">Img</tspan><tspan x="0" y="86.4" display="inline" font-family="'Modern-Regular'" font-size="12">Url</tspan><tspan x="0" y="100.8" display="inline" font-family="'Modern-Regular'" font-size="12">Code</tspan><tspan x="0" y="115.2" display="inline" font-family="'Modern-Regular'" font-size="12">Down Arrow</tspan><tspan x="0" y="129.6" display="inline" font-family="'Modern-Regular'" font-size="12">Right Arrow</tspan></text>
<text transform="matrix(1 0 0 1 78.2495 -299.9346)" display="none"><tspan x="0" y="0" display="inline" font-family="'midaymForum'" font-size="12">l</tspan><tspan x="0" y="14.4" display="inline" font-family="'midaymForum'" font-size="12">p</tspan><tspan x="0" y="43.2" display="inline" font-family="'midaymForum'" font-size="12">k</tspan><tspan x="0" y="57.6" display="inline" font-family="'midaymForum'" font-size="12">q</tspan><tspan x="0" y="72" display="inline" font-family="'midaymForum'" font-size="12">j</tspan><tspan x="0" y="86.4" display="inline" font-family="'midaymForum'" font-size="12">g</tspan><tspan x="0" y="100.8" display="inline" font-family="'midaymForum'" font-size="12">f</tspan><tspan x="0" y="115.2" display="inline" font-family="'midaymForum'" font-size="12">7</tspan><tspan x="0" y="129.6" display="inline" font-family="'midaymForum'" font-size="12">s</tspan><tspan x="0" y="144" display="inline" font-family="'midaymForum'" font-size="12">w</tspan><tspan x="0" y="158.4" display="inline" font-family="'midaymForum'" font-size="12">e</tspan><tspan x="0" y="172.8" display="inline" font-family="'midaymForum'" font-size="12">i</tspan><tspan x="0" y="187.2" display="inline" font-family="'midaymForum'" font-size="12">c</tspan><tspan x="0" y="201.6" display="inline" font-family="'midaymForum'" font-size="12">b</tspan><tspan x="0" y="216" display="inline" font-family="'midaymForum'" font-size="12">t</tspan><tspan x="0" y="230.4" display="inline" font-family="'midaymForum'" font-size="12">&apos;</tspan><tspan x="0" y="244.8" display="inline" font-family="'midaymForum'" font-size="12">9</tspan></text>
<text transform="matrix(1 0 0 1 269.2495 -299.9346)" display="none"><tspan x="0" y="0" display="inline" font-family="'midaymForum'" font-size="12">o</tspan><tspan x="0" y="28.8" display="inline" font-family="'midaymForum'" font-size="12">m</tspan><tspan x="0" y="43.2" display="inline" font-family="'midaymForum'" font-size="12">;</tspan><tspan x="0" y="57.6" display="inline" font-family="'midaymForum'" font-size="12">[</tspan><tspan x="0" y="72" display="inline" font-family="'midaymForum'" font-size="12">]</tspan><tspan x="0" y="86.4" display="inline" font-family="'midaymForum'" font-size="12">0</tspan><tspan x="0" y="115.2" display="inline" font-family="'midaymForum'" font-size="12">.</tspan><tspan x="0" y="158.4" display="inline" font-family="'midaymForum'" font-size="12">r</tspan><tspan x="0" y="187.2" display="inline" font-family="'midaymForum'" font-size="12">s</tspan><tspan x="0" y="201.6" display="inline" font-family="'midaymForum'" font-size="12">a</tspan><tspan x="0" y="216" display="inline" font-family="'midaymForum'" font-size="12">\</tspan><tspan x="0" y="230.4" display="inline" font-family="'midaymForum'" font-size="12">d</tspan><tspan x="0" y="244.8" display="inline" font-family="'midaymForum'" font-size="12">n</tspan><tspan x="0" y="259.2" display="inline" font-family="'midaymForum'" font-size="12">,</tspan><tspan x="0" y="273.6" display="inline" font-family="'midaymForum'" font-size="12">/</tspan></text>
<text transform="matrix(1 0 0 1 425.2495 -299.9346)" display="none"><tspan x="0" y="0" display="inline" font-family="'midaymForum'" font-size="12">1</tspan><tspan x="0" y="14.4" display="inline" font-family="'midaymForum'" font-size="12">2</tspan><tspan x="0" y="28.8" display="inline" font-family="'midaymForum'" font-size="12">3</tspan><tspan x="0" y="43.2" display="inline" font-family="'midaymForum'" font-size="12">4</tspan><tspan x="0" y="72" display="inline" font-family="'midaymForum'" font-size="12">6</tspan><tspan x="0" y="86.4" display="inline" font-family="'midaymForum'" font-size="12">5</tspan><tspan x="0" y="115.2" display="inline" font-family="'midaymForum'" font-size="12">z</tspan><tspan x="0" y="129.6" display="inline" font-family="'midaymForum'" font-size="12">h</tspan></text>
<rect display="none" fill="#FFD4D4" width="194.5" height="198.499"/>
<path id="Pages" display="none" d="M129.188,39.94V5.165c0-1.531,0.383-2.419,1.149-2.685c0.76-0.233,1.659,0.144,2.674,1.154
	l37.849,37.85c1.015,1.021,1.381,1.907,1.137,2.673c-0.26,0.755-1.137,1.133-2.668,1.133h-34.787
	C130.963,45.289,129.188,43.513,129.188,39.94z M171.997,53.322h-40.129c-3.057,0-5.604-0.998-7.646-3.062
	c-2.042-2.021-3.057-4.562-3.057-7.635V10.513V2.479c0-1.765-0.899-2.663-2.675-2.663H56.946c-3.062,0-5.615,1.021-7.64,3.062
	c-2.053,2.031-3.068,4.593-3.068,7.634v16.934H88.47c0.844,0,1.348,0.532,2.059,0.777c0.239,0,0.427,0.21,0.666,0.266
	c0.605,0.289,1.393,0.289,1.842,0.755c0.022,0.021,0.044,0,0.061,0.021l53.395,53.405c0.017,0.012,0.028,0.023,0.033,0.034
	l0.139,0.133c0.76,0.776,1.032,1.775,0.977,2.774c0.15,0.576,0.61,0.943,0.61,1.62v83.82h15.723c3.052,0,5.604-1.01,7.646-3.052
	c2.042-2.042,3.057-4.582,3.057-7.645v-38.992V56.008C174.676,54.221,173.783,53.322,171.997,53.322z M94.74,41.095v32.756
	c0,2.13,0.638,3.739,1.997,5.093c1.359,1.365,2.991,2.009,5.099,2.009h32.734L94.74,41.095z M91.639,84.048
	c-2.719-2.719-4.111-6.158-4.111-10.197V34.637H26.926c-2.12,0-3.745,0.644-5.093,2.02c-1.375,1.354-2.008,2.974-2.008,5.093
	v149.832c0,2.107,0.633,3.739,2.008,5.081c1.348,1.376,2.974,2.021,5.093,2.021h107.017c2.114,0,3.734-0.645,5.11-2.021
	c1.359-1.354,1.998-2.974,1.998-5.081V88.164h-39.214C97.797,88.164,94.374,86.767,91.639,84.048z"/>
<path id="View" display="none" d="M185.481,57.841c-5.84-5.854-12.964-8.787-21.32-8.787h-16.719V32.329
	c0-8.356-2.934-15.46-8.793-21.327c-5.84-5.841-12.964-8.774-21.314-8.774H30.333c-8.35,0-15.474,2.933-21.314,8.774
	c-5.866,5.866-8.793,12.971-8.793,21.327v87.002c0,8.356,2.927,15.461,8.793,21.328c5.84,5.84,12.964,8.772,21.314,8.772h16.725
	v16.726c0,8.356,2.927,15.474,8.787,21.327c5.847,5.853,12.971,8.786,21.32,8.786h86.997c8.356,0,15.48-2.934,21.32-8.786
	c5.86-5.854,8.793-12.971,8.793-21.327v-86.99C194.274,70.812,191.341,63.693,185.481,57.841z M30.333,136.057
	c-4.452,0-8.35-1.682-11.7-5.019c-3.357-3.351-5.019-7.248-5.019-11.707V32.329c0-4.458,1.662-8.356,5.019-11.707
	c3.35-3.337,7.248-5.019,11.7-5.019h87.003c4.452,0,8.35,1.682,11.7,5.019c3.35,3.351,5.019,7.248,5.019,11.707v16.725h-56.89
	c-8.35,0-15.474,2.934-21.32,8.787c-5.86,5.853-8.787,12.971-8.787,21.326v56.89H30.333z M134.054,62.442v56.889
	c0,4.459-1.669,8.356-5.019,11.707c-3.35,3.337-7.248,5.019-11.7,5.019h-56.89v-56.89c0-4.458,1.662-8.355,5.019-11.719
	c3.35-3.338,7.241-5.006,11.7-5.006H134.054z M180.886,166.157c0,4.458-1.668,8.356-5.019,11.707
	c-3.35,3.35-7.248,5.031-11.706,5.031H77.165c-4.458,0-8.35-1.682-11.7-5.031c-3.357-3.351-5.019-7.249-5.019-11.707v-16.726h56.89
	c8.35,0,15.474-2.933,21.314-8.772c5.859-5.867,8.793-12.972,8.793-21.328V62.442h16.719c4.458,0,8.356,1.668,11.706,5.006
	c3.351,3.363,5.019,7.261,5.019,11.719V166.157z"/>
<path id="Sort" display="none" d="M193.763,2.736v107.401h-32.107V34.858H86.369V2.736H193.763z M43.55,45.557v32.107h75.293v75.279
	h32.107V45.557H43.55z M0.737,88.375v107.388h107.401V88.375H0.737z"/>
<path id="Mod" display="none" d="M125.396,101.227c4.214,4.23,9.189,7.479,14.885,9.757l-18.224,18.224l-24.641-24.634
	l18.224-18.231C117.925,92.046,121.174,97.005,125.396,101.227z M193.332,59.99c-0.916-3.646-2.285-6.726-4.108-9.245
	c-0.462-0.916-1.199-1.361-2.228-1.361c-1.021,0-1.88,0.445-2.561,1.361L170.06,75.734h-19.172l-9.237-16.433
	c0.227-0.445,1.653-2.73,4.278-6.847c2.625-4.108,4.911-7.925,6.847-11.458c1.937-3.541,2.909-5.656,2.909-6.337
	s-0.227-1.312-0.681-1.88c-0.462-0.567-1.151-0.851-2.059-0.851c-2.285,0-5.364,0.688-9.237,2.05
	c-7.536,2.739-13.694,7.472-18.483,14.205c-4.789,6.726-7.188,14.091-7.188,22.072c0,10.494,3.76,19.504,11.296,27.04
	c7.527,7.52,16.538,11.296,27.032,11.296c10.493,0,19.512-3.776,27.032-11.296c7.536-7.536,11.304-16.546,11.304-27.04
	C194.702,67.064,194.24,63.645,193.332,59.99z M103.104,148.16L82.11,169.171c-2.285,2.277-4.911,3.42-7.876,3.42
	c-3.192,0-5.705-1.143-7.536-3.42l-9.578-8.913c-2.05-2.27-3.08-4.902-3.08-7.86c0-2.966,1.029-5.478,3.08-7.536l21.343-21.343
	L103.104,148.16z M83.471,150.68c1.143-1.143,1.709-2.398,1.709-3.76c0-1.377-0.567-2.625-1.709-3.768
	c-1.135-1.135-2.398-1.71-3.76-1.71c-1.378,0-2.625,0.575-3.768,1.71c-1.143,1.143-1.71,2.391-1.71,3.768
	c0,1.361,0.511,2.617,1.54,3.76c1.021,1.143,2.277,1.718,3.76,1.718C81.024,152.397,82.336,151.822,83.471,150.68z M15.535,82.379
	c-1.37-1.369-3.031-2.05-4.959-2.05c-1.937,0-3.711,0.681-5.299,2.05l-3.087,3.42c-1.596,1.369-2.391,3.03-2.391,4.967
	c0,1.945,0.794,3.712,2.391,5.3l36.974,36.966c1.58,1.597,3.354,2.398,5.299,2.398c1.929,0,3.598-0.802,4.951-2.398l3.427-3.079
	c1.361-1.588,2.05-3.371,2.05-5.308s-0.689-3.59-2.05-4.967L15.535,82.379z M143.887,160.063L76.454,92.646l12.665-12.656
	L55.24,46.102L19.644,81.69l33.895,33.887l12.997-13.013l67.417,67.425c1.369,1.597,3.014,2.391,4.959,2.391
	c1.937,0,3.646-0.737,5.137-2.221c1.475-1.49,2.229-3.192,2.229-5.129S145.467,161.44,143.887,160.063z M93.567,78.951
	c1.361,1.378,3.031,2.059,4.959,2.059c1.945,0,3.711-0.681,5.316-2.059l3.071-3.419c1.596-1.369,2.391-3.022,2.391-4.959
	s-0.794-3.711-2.391-5.308L69.955,28.307c-1.604-1.597-3.371-2.398-5.299-2.398c-1.953,0-3.598,0.802-4.975,2.398l-3.419,3.079
	c-1.37,1.597-2.059,3.372-2.059,5.3c0,1.944,0.689,3.598,2.059,4.967L93.567,78.951z"/>
<path id="List_Item" display="none" d="M194.04,88.882v20.736c0,0.859-0.369,1.657-1.096,2.374
	c-0.705,0.716-1.503,1.084-2.362,1.084H59.224c-0.869,0-1.658-0.368-2.383-1.084c-0.706-0.717-1.074-1.515-1.074-2.374V88.882
	c0-0.87,0.369-1.647,1.074-2.383c0.726-0.718,1.514-1.075,2.383-1.075h131.358c0.859,0,1.657,0.357,2.362,1.075
	C193.671,87.234,194.04,88.012,194.04,88.882z M21.208,78.508c-5.77,0-10.66,2.016-14.701,6.047
	c-4.031,4.051-6.046,8.941-6.046,14.69c0,5.77,2.015,10.66,6.046,14.69c4.041,4.042,8.931,6.057,14.701,6.057
	c5.75,0,10.65-2.015,14.681-6.057c4.031-4.03,6.046-8.921,6.046-14.69c0-5.749-2.015-10.64-6.046-14.69
	C31.858,80.523,26.957,78.508,21.208,78.508z"/>
<path id="Subscribe" d="M174.087,0.143c0,0-129.639,0-139.38,0c-18.808,0-32.347,26.825-32.155,35.226l0.057,162.988
	c0,0,123.3,0,141.261,0c9.793,0,17.966,0,17.966-9.721c0,0,0-132.028,0-147.682c0-9.736-8.173-9.685-17.966-9.685h-43.757
	c-7.237,0-76.665,0-76.665,0c1.559-6.509,13.503-17.504,19.432-17.857c5.933-0.347,100.091,0,123.03,0
	c4.826,0,12.999,0,12.999,9.686l0.129,141.675c4.734,0.109,12.912,0.109,12.912-9.674c0,0,0-127.538,0-145.125
	C191.95,0.055,183.808,0.143,174.087,0.143z M54.554,100.239l17,16.979l41.476-41.48l17.743,17.742L71.86,152.403l-8.178-8.18
	l-0.312,0.312l-26.554-26.559L54.554,100.239z"/>
<path id="Users" display="none" d="M174.024,0.208c0,0-129.538,0-139.272,0c-18.789,0-32.33,26.813-32.133,35.202l0.047,162.881
	c0,0,123.224,0,141.179,0c9.781,0,17.947,0,17.947-9.72c0,0,0-131.937,0-147.574c0-9.739-8.166-9.678-17.947-9.678h-43.723
	c-7.242,0-76.621,0-76.621,0c1.557-6.5,13.505-17.487,19.418-17.84c5.918-0.354,100.031,0,122.938,0c4.83,0,12.996,0,12.996,9.668
	l0.119,141.583c4.741,0.104,12.912,0.104,12.912-9.667c0,0,0-127.451,0-145.032C191.883,0.125,183.753,0.208,174.024,0.208z
	 M74.178,121.68v-6.729c-7.2-3.054-12.263-10.197-12.263-18.505c0-11.09,8.986-20.081,20.076-20.081
	c11.085,0,20.072,8.991,20.072,20.081c0,8.1-4.833,15.057-11.765,18.214v7.02c30.97,4.06,33,30.922,33,30.922H41.184
	C41.184,152.602,43.213,125.729,74.178,121.68z"/>
<path id="Bookmark" display="none" d="M174.186,0.018c0,0-129.806,0-139.555,0C15.8,0.018,2.239,26.876,2.436,35.289l0.047,163.192
	c0,0,123.465,0,141.448,0c9.806,0,17.988,0,17.988-9.733c0,0,0-132.194,0-147.867c0-9.749-8.183-9.691-17.988-9.691h-28.158v68.062
	v34.043L84.686,99.252L55.69,133.295V99.252V31.189c-17.001,0-32.331,0-32.331,0c1.561-6.523,13.521-17.527,19.455-17.881
	c5.936-0.354,100.218,0,123.175,0c4.842,0,13.025,0,13.025,9.691l0.119,141.855c4.744,0.108,12.933,0.108,12.933-9.686
	c0,0,0-127.7,0-145.305C192.066-0.071,183.918,0.018,174.186,0.018z"/>
<path id="Code" display="none" d="M26.331,103.938l43.995,26.81v23.85l-69.22-44.444V96.566l0.917-0.534
	c0.066-0.048,0.124-0.077,0.2-0.134L70.555,55.76v22.046L26.331,103.938z M143.537,72.659v16.231l25.464,15.524l-47.204,29.692
	v16.174l71.597-38.61V99.249L143.537,72.659z M130.733,21.562L70.555,176.938h20.479l59.796-155.166L130.733,21.562z"/>
<path id="Quote" display="none" d="M129.023,71.244c2.941,3.457,4.42,7.627,4.42,12.498c0,5.489-1.623,10.023-4.877,13.567
	c-3.255,3.573-7.828,5.345-13.726,5.345c-6.707,0-12.2-2.438-16.47-7.319c-4.271-4.871-6.403-11.381-6.403-19.527
	c0-7.722,2.686-16.013,8.079-24.842c5.388-8.859,15.194-16.832,29.44-23.948l2.437,4.872c-6.918,5.094-12.099,9.255-15.561,12.508
	c-5.893,6.105-8.844,12.008-8.844,17.689c0,1.83,0.505,3.053,1.526,3.659c1.223,0.606,2.138,0.914,2.744,0.914
	c2.845-0.395,4.776-0.606,5.796-0.606C122.264,66.054,126.072,67.786,129.023,71.244z M194.447,83.742
	c0,5.701-1.675,10.274-5.031,13.731c-3.351,3.457-7.987,5.181-13.88,5.181c-6.509,0-11.892-2.438-16.163-7.319
	c-4.27-4.871-6.403-11.381-6.403-19.527c0-8.116,2.835-16.562,8.541-25.305c5.686-8.752,15.248-16.58,28.666-23.485l2.744,4.872
	c-6.711,4.671-11.795,8.754-15.248,12.21c-6.302,6.298-9.456,12.094-9.456,17.372c0,1.636,0.4,2.907,1.218,3.812
	c0.814,0.925,1.936,1.376,3.355,1.376c2.851-0.395,4.68-0.606,5.489-0.606c4.675,0,8.541,1.732,11.593,5.19
	C192.921,74.701,194.447,78.871,194.447,83.742z M139.745,107.585c-2.166,2.376-5.314,4.985-9.556,6.99v27.624
	c0,4.343-1.623,8.137-4.877,11.392c-3.254,3.254-7.053,4.873-11.391,4.873H29.334c-4.342,0-8.131-1.619-11.386-4.873
	c-3.254-3.255-4.886-7.049-4.886-11.392v-84.59c0-4.323,1.632-8.137,4.886-11.381c3.255-3.256,7.044-4.882,11.386-4.882h59.021
	c3.042-4.613,6.865-8.945,11.54-13.02H29.334c-8.131,0-15.05,2.85-20.746,8.542c-5.69,5.69-8.536,12.604-8.536,20.74v84.59
	c0,8.137,2.845,15.052,8.536,20.742c5.696,5.699,12.614,8.54,20.746,8.54h84.586c8.137,0,15.05-2.841,20.746-8.54
	c5.695-5.69,8.541-12.605,8.541-20.742v-39.498C142.148,104.387,141.117,106.091,139.745,107.585z"/>
<text transform="matrix(1 0 0 1 89.0894 -40.7734)" display="none" font-family="'midaymForum'" font-size="194.3305">q</text>
</svg>
